<svg version="1.0" xmlns="http://www.w3.org/2000/svg"
 width="400.000000pt" height="400.000000pt" viewBox="0 0 400.000000 400.000000"
 preserveAspectRatio="xMidYMid meet">
<g transform="translate(0.000000,400.000000) scale(0.100000,-0.100000)"
fill="#000000" stroke="none">
<path d="M5 3988 c-3 -7 -4 -906 -3 -1998 l3 -1985 1995 0 1995 0 0 1995 0
1995 -1993 3 c-1589 2 -1994 0 -1997 -10z m2255 -988 c312 -38 503 -174 587
-417 23 -68 27 -94 27 -208 1 -103 -3 -142 -18 -185 -57 -167 -151 -268 -298
-322 l-58 -21 56 -23 c139 -56 221 -173 244 -348 6 -39 13 -164 16 -278 l7
-208 -275 0 -275 0 -6 208 c-7 213 -19 295 -53 353 -23 40 -72 75 -123 89 -22
6 -221 10 -503 10 l-468 0 0 220 0 220 488 0 c525 0 566 3 640 53 68 46 100
166 71 270 -12 44 -60 102 -103 124 -78 40 -114 43 -613 43 l-483 0 0 215 0
215 528 0 c303 0 564 -4 612 -10z m-500 -1695 c50 -26 60 -60 60 -195 l0 -120
-350 0 -350 0 0 165 0 165 305 0 c254 0 311 -3 335 -15z"/>
</g>
</svg>
